<svg xmlns="http://www.w3.org/2000/svg" viewBox="0 0 760 560"><rect width="760" height="560" fill="#fffdf8"/><rect x="34" y="34" width="692" height="492" fill="#fff" stroke="#17221d" stroke-opacity=".18"/><rect x="66" y="70" width="210" height="78" fill="#236d4a"/><rect x="300" y="70" width="170" height="78" fill="#e96f55"/><rect x="494" y="70" width="200" height="78" fill="#c7e15e"/><g fill="none" stroke="#0b8b8f" stroke-width="8"><path d="M80 350c70-120 130-80 190-150s130-30 180-70 100 20 160-30"/><path d="M80 410c90-80 140-30 220-90s110-45 170-20 95-15 140-70" opacity=".45"/></g><g fill="#17221d"><rect x="70" y="190" width="160" height="18"/><rect x="70" y="222" width="270" height="14" opacity=".45"/><rect x="70" y="470" width="590" height="16" opacity=".18"/></g><g fill="#236d4a"><circle cx="112" cy="350" r="12"/><circle cx="268" cy="202" r="12"/><circle cx="456" cy="132" r="12"/><circle cx="610" cy="100" r="12"/></g></svg>